<mxfile host="app.diagrams.net" modified="2020-10-18T21:05:17.655Z" agent="5.0 (Windows)" etag="LKNzd4BEFtelWMgqv18f" version="13.8.0" type="github">
  <diagram id="C5RBs43oDa-KdzZeNtuy" name="Page-1">
    <mxGraphModel dx="1038" dy="575" grid="1" gridSize="10" guides="1" tooltips="1" connect="1" arrows="1" fold="1" page="1" pageScale="1" pageWidth="1654" pageHeight="2336" math="0" shadow="0">
      <root>
        <mxCell id="WIyWlLk6GJQsqaUBKTNV-0" />
        <mxCell id="WIyWlLk6GJQsqaUBKTNV-1" parent="WIyWlLk6GJQsqaUBKTNV-0" />
        <mxCell id="WIyWlLk6GJQsqaUBKTNV-2" value="" style="rounded=0;html=1;jettySize=auto;orthogonalLoop=1;fontSize=11;endArrow=block;endFill=0;endSize=8;strokeWidth=1;shadow=0;labelBackgroundColor=none;edgeStyle=orthogonalEdgeStyle;" parent="WIyWlLk6GJQsqaUBKTNV-1" target="WIyWlLk6GJQsqaUBKTNV-6" edge="1">
          <mxGeometry relative="1" as="geometry">
            <mxPoint x="608" y="160" as="sourcePoint" />
          </mxGeometry>
        </mxCell>
        <mxCell id="WIyWlLk6GJQsqaUBKTNV-3" value="Start / Reset" style="rounded=1;whiteSpace=wrap;html=1;fontSize=12;glass=0;strokeWidth=1;shadow=0;" parent="WIyWlLk6GJQsqaUBKTNV-1" vertex="1">
          <mxGeometry x="543" y="40" width="120" height="40" as="geometry" />
        </mxCell>
        <mxCell id="WIyWlLk6GJQsqaUBKTNV-6" value="Has the + button been pressed?" style="rhombus;whiteSpace=wrap;html=1;shadow=0;fontFamily=Helvetica;fontSize=12;align=center;strokeWidth=1;spacing=6;spacingTop=-4;" parent="WIyWlLk6GJQsqaUBKTNV-1" vertex="1">
          <mxGeometry x="541.5" y="255.28" width="133" height="110.57" as="geometry" />
        </mxCell>
        <mxCell id="WIyWlLk6GJQsqaUBKTNV-7" value="Move the servo +10" style="rounded=1;whiteSpace=wrap;html=1;fontSize=12;glass=0;strokeWidth=1;shadow=0;" parent="WIyWlLk6GJQsqaUBKTNV-1" vertex="1">
          <mxGeometry x="938" y="290.57" width="120" height="40" as="geometry" />
        </mxCell>
        <mxCell id="WIyWlLk6GJQsqaUBKTNV-11" value="Start the timer" style="rounded=1;whiteSpace=wrap;html=1;fontSize=12;glass=0;strokeWidth=1;shadow=0;" parent="WIyWlLk6GJQsqaUBKTNV-1" vertex="1">
          <mxGeometry x="548" y="880" width="120" height="40" as="geometry" />
        </mxCell>
        <mxCell id="MQwKPFNeP4CUEqp8ZwcY-2" value="Is it at 180ยบ?" style="rhombus;whiteSpace=wrap;html=1;shadow=0;fontFamily=Helvetica;fontSize=12;align=center;strokeWidth=1;spacing=6;spacingTop=-4;" parent="WIyWlLk6GJQsqaUBKTNV-1" vertex="1">
          <mxGeometry x="758" y="260.57" width="130" height="100" as="geometry" />
        </mxCell>
        <mxCell id="MQwKPFNeP4CUEqp8ZwcY-3" value="" style="endArrow=classic;html=1;exitX=1;exitY=0.5;exitDx=0;exitDy=0;" parent="WIyWlLk6GJQsqaUBKTNV-1" source="WIyWlLk6GJQsqaUBKTNV-6" target="MQwKPFNeP4CUEqp8ZwcY-2" edge="1">
          <mxGeometry width="50" height="50" relative="1" as="geometry">
            <mxPoint x="698" y="430.57" as="sourcePoint" />
            <mxPoint x="748" y="380.57" as="targetPoint" />
          </mxGeometry>
        </mxCell>
        <mxCell id="MQwKPFNeP4CUEqp8ZwcY-8" value="Yes" style="edgeLabel;html=1;align=center;verticalAlign=middle;resizable=0;points=[];" parent="MQwKPFNeP4CUEqp8ZwcY-3" vertex="1" connectable="0">
          <mxGeometry x="-0.3479" y="1" relative="1" as="geometry">
            <mxPoint x="7.57" y="-9" as="offset" />
          </mxGeometry>
        </mxCell>
        <mxCell id="MQwKPFNeP4CUEqp8ZwcY-9" value="" style="endArrow=classic;html=1;exitX=0.5;exitY=1;exitDx=0;exitDy=0;" parent="WIyWlLk6GJQsqaUBKTNV-1" source="WIyWlLk6GJQsqaUBKTNV-6" edge="1">
          <mxGeometry width="50" height="50" relative="1" as="geometry">
            <mxPoint x="778" y="460.57" as="sourcePoint" />
            <mxPoint x="608" y="430.57" as="targetPoint" />
          </mxGeometry>
        </mxCell>
        <mxCell id="MQwKPFNeP4CUEqp8ZwcY-104" value="No" style="edgeLabel;html=1;align=center;verticalAlign=middle;resizable=0;points=[];" parent="MQwKPFNeP4CUEqp8ZwcY-9" vertex="1" connectable="0">
          <mxGeometry x="-0.3972" y="1" relative="1" as="geometry">
            <mxPoint x="-19" y="14.149999999999999" as="offset" />
          </mxGeometry>
        </mxCell>
        <mxCell id="MQwKPFNeP4CUEqp8ZwcY-10" value="" style="endArrow=classic;html=1;exitX=0.5;exitY=1;exitDx=0;exitDy=0;" parent="WIyWlLk6GJQsqaUBKTNV-1" source="MQwKPFNeP4CUEqp8ZwcY-2" edge="1">
          <mxGeometry width="50" height="50" relative="1" as="geometry">
            <mxPoint x="808" y="460.57" as="sourcePoint" />
            <mxPoint x="823" y="430.57" as="targetPoint" />
          </mxGeometry>
        </mxCell>
        <mxCell id="MQwKPFNeP4CUEqp8ZwcY-11" value="" style="endArrow=none;html=1;" parent="WIyWlLk6GJQsqaUBKTNV-1" edge="1">
          <mxGeometry width="50" height="50" relative="1" as="geometry">
            <mxPoint x="608" y="430.57" as="sourcePoint" />
            <mxPoint x="828" y="430.57" as="targetPoint" />
          </mxGeometry>
        </mxCell>
        <mxCell id="MQwKPFNeP4CUEqp8ZwcY-12" value="Yes" style="text;html=1;strokeColor=none;fillColor=none;align=center;verticalAlign=middle;whiteSpace=wrap;rounded=0;" parent="WIyWlLk6GJQsqaUBKTNV-1" vertex="1">
          <mxGeometry x="782" y="370.57" width="40" height="20" as="geometry" />
        </mxCell>
        <mxCell id="MQwKPFNeP4CUEqp8ZwcY-13" value="" style="endArrow=classic;html=1;entryX=0.5;entryY=0;entryDx=0;entryDy=0;" parent="WIyWlLk6GJQsqaUBKTNV-1" edge="1">
          <mxGeometry width="50" height="50" relative="1" as="geometry">
            <mxPoint x="608" y="430.57" as="sourcePoint" />
            <mxPoint x="608" y="500.57" as="targetPoint" />
          </mxGeometry>
        </mxCell>
        <mxCell id="MQwKPFNeP4CUEqp8ZwcY-14" value="No" style="endArrow=classic;html=1;exitX=1;exitY=0.5;exitDx=0;exitDy=0;entryX=0;entryY=0.5;entryDx=0;entryDy=0;" parent="WIyWlLk6GJQsqaUBKTNV-1" source="MQwKPFNeP4CUEqp8ZwcY-2" target="WIyWlLk6GJQsqaUBKTNV-7" edge="1">
          <mxGeometry y="10" width="50" height="50" relative="1" as="geometry">
            <mxPoint x="898" y="440.57" as="sourcePoint" />
            <mxPoint x="948" y="390.57" as="targetPoint" />
            <mxPoint as="offset" />
          </mxGeometry>
        </mxCell>
        <mxCell id="MQwKPFNeP4CUEqp8ZwcY-15" value="" style="endArrow=classic;html=1;exitX=0.5;exitY=1;exitDx=0;exitDy=0;" parent="WIyWlLk6GJQsqaUBKTNV-1" source="WIyWlLk6GJQsqaUBKTNV-7" edge="1">
          <mxGeometry width="50" height="50" relative="1" as="geometry">
            <mxPoint x="968" y="410.57" as="sourcePoint" />
            <mxPoint x="998" y="430.57" as="targetPoint" />
          </mxGeometry>
        </mxCell>
        <mxCell id="MQwKPFNeP4CUEqp8ZwcY-16" value="" style="endArrow=none;html=1;" parent="WIyWlLk6GJQsqaUBKTNV-1" edge="1">
          <mxGeometry width="50" height="50" relative="1" as="geometry">
            <mxPoint x="828" y="430.57" as="sourcePoint" />
            <mxPoint x="998" y="430.57" as="targetPoint" />
          </mxGeometry>
        </mxCell>
        <mxCell id="MQwKPFNeP4CUEqp8ZwcY-17" value="Has the - button been pressed?" style="rhombus;whiteSpace=wrap;html=1;shadow=0;fontFamily=Helvetica;fontSize=12;align=center;strokeWidth=1;spacing=6;spacingTop=-4;" parent="WIyWlLk6GJQsqaUBKTNV-1" vertex="1">
          <mxGeometry x="543" y="500.57" width="130" height="100" as="geometry" />
        </mxCell>
        <mxCell id="MQwKPFNeP4CUEqp8ZwcY-18" value="Move servo -10" style="rounded=1;whiteSpace=wrap;html=1;fontSize=12;glass=0;strokeWidth=1;shadow=0;" parent="WIyWlLk6GJQsqaUBKTNV-1" vertex="1">
          <mxGeometry x="948" y="530.5699999999999" width="120" height="40" as="geometry" />
        </mxCell>
        <mxCell id="MQwKPFNeP4CUEqp8ZwcY-19" value="Is it at 0ยบ?" style="rhombus;whiteSpace=wrap;html=1;shadow=0;fontFamily=Helvetica;fontSize=12;align=center;strokeWidth=1;spacing=6;spacingTop=-4;" parent="WIyWlLk6GJQsqaUBKTNV-1" vertex="1">
          <mxGeometry x="758" y="500.57" width="130" height="100" as="geometry" />
        </mxCell>
        <mxCell id="MQwKPFNeP4CUEqp8ZwcY-20" value="" style="endArrow=classic;html=1;exitX=1;exitY=0.5;exitDx=0;exitDy=0;" parent="WIyWlLk6GJQsqaUBKTNV-1" source="MQwKPFNeP4CUEqp8ZwcY-17" target="MQwKPFNeP4CUEqp8ZwcY-19" edge="1">
          <mxGeometry width="50" height="50" relative="1" as="geometry">
            <mxPoint x="698" y="670.57" as="sourcePoint" />
            <mxPoint x="748" y="620.57" as="targetPoint" />
          </mxGeometry>
        </mxCell>
        <mxCell id="MQwKPFNeP4CUEqp8ZwcY-21" value="Yes" style="edgeLabel;html=1;align=center;verticalAlign=middle;resizable=0;points=[];" parent="MQwKPFNeP4CUEqp8ZwcY-20" vertex="1" connectable="0">
          <mxGeometry x="-0.3479" y="1" relative="1" as="geometry">
            <mxPoint x="7.57" y="-9" as="offset" />
          </mxGeometry>
        </mxCell>
        <mxCell id="MQwKPFNeP4CUEqp8ZwcY-22" value="" style="endArrow=classic;html=1;exitX=0.5;exitY=1;exitDx=0;exitDy=0;" parent="WIyWlLk6GJQsqaUBKTNV-1" source="MQwKPFNeP4CUEqp8ZwcY-17" edge="1">
          <mxGeometry width="50" height="50" relative="1" as="geometry">
            <mxPoint x="778" y="700.57" as="sourcePoint" />
            <mxPoint x="608" y="670.57" as="targetPoint" />
          </mxGeometry>
        </mxCell>
        <mxCell id="MQwKPFNeP4CUEqp8ZwcY-23" value="" style="endArrow=classic;html=1;exitX=0.5;exitY=1;exitDx=0;exitDy=0;" parent="WIyWlLk6GJQsqaUBKTNV-1" source="MQwKPFNeP4CUEqp8ZwcY-19" edge="1">
          <mxGeometry width="50" height="50" relative="1" as="geometry">
            <mxPoint x="808" y="700.57" as="sourcePoint" />
            <mxPoint x="823" y="670.57" as="targetPoint" />
          </mxGeometry>
        </mxCell>
        <mxCell id="MQwKPFNeP4CUEqp8ZwcY-24" value="" style="endArrow=none;html=1;" parent="WIyWlLk6GJQsqaUBKTNV-1" edge="1">
          <mxGeometry width="50" height="50" relative="1" as="geometry">
            <mxPoint x="608" y="670.57" as="sourcePoint" />
            <mxPoint x="828" y="670.57" as="targetPoint" />
          </mxGeometry>
        </mxCell>
        <mxCell id="MQwKPFNeP4CUEqp8ZwcY-25" value="Yes" style="text;html=1;strokeColor=none;fillColor=none;align=center;verticalAlign=middle;whiteSpace=wrap;rounded=0;" parent="WIyWlLk6GJQsqaUBKTNV-1" vertex="1">
          <mxGeometry x="782" y="610.57" width="40" height="20" as="geometry" />
        </mxCell>
        <mxCell id="MQwKPFNeP4CUEqp8ZwcY-26" value="" style="endArrow=classic;html=1;entryX=0.5;entryY=0;entryDx=0;entryDy=0;" parent="WIyWlLk6GJQsqaUBKTNV-1" edge="1">
          <mxGeometry width="50" height="50" relative="1" as="geometry">
            <mxPoint x="608" y="670.57" as="sourcePoint" />
            <mxPoint x="608" y="740.57" as="targetPoint" />
          </mxGeometry>
        </mxCell>
        <mxCell id="MQwKPFNeP4CUEqp8ZwcY-27" value="No" style="endArrow=classic;html=1;exitX=1;exitY=0.5;exitDx=0;exitDy=0;entryX=0;entryY=0.5;entryDx=0;entryDy=0;" parent="WIyWlLk6GJQsqaUBKTNV-1" source="MQwKPFNeP4CUEqp8ZwcY-19" target="MQwKPFNeP4CUEqp8ZwcY-18" edge="1">
          <mxGeometry x="-0.3333" y="10" width="50" height="50" relative="1" as="geometry">
            <mxPoint x="898" y="680.57" as="sourcePoint" />
            <mxPoint x="948" y="630.57" as="targetPoint" />
            <mxPoint as="offset" />
          </mxGeometry>
        </mxCell>
        <mxCell id="MQwKPFNeP4CUEqp8ZwcY-28" value="" style="endArrow=classic;html=1;exitX=0.5;exitY=1;exitDx=0;exitDy=0;" parent="WIyWlLk6GJQsqaUBKTNV-1" source="MQwKPFNeP4CUEqp8ZwcY-18" edge="1">
          <mxGeometry width="50" height="50" relative="1" as="geometry">
            <mxPoint x="978" y="650.57" as="sourcePoint" />
            <mxPoint x="1008" y="670.57" as="targetPoint" />
          </mxGeometry>
        </mxCell>
        <mxCell id="MQwKPFNeP4CUEqp8ZwcY-29" value="" style="endArrow=none;html=1;" parent="WIyWlLk6GJQsqaUBKTNV-1" edge="1">
          <mxGeometry width="50" height="50" relative="1" as="geometry">
            <mxPoint x="828" y="670.57" as="sourcePoint" />
            <mxPoint x="1008" y="670.57" as="targetPoint" />
          </mxGeometry>
        </mxCell>
        <mxCell id="MQwKPFNeP4CUEqp8ZwcY-32" value="Has the ISP button been pressed?" style="rhombus;whiteSpace=wrap;html=1;shadow=0;fontFamily=Helvetica;fontSize=12;align=center;strokeWidth=1;spacing=6;spacingTop=-4;" parent="WIyWlLk6GJQsqaUBKTNV-1" vertex="1">
          <mxGeometry x="543" y="740.57" width="130" height="100" as="geometry" />
        </mxCell>
        <mxCell id="MQwKPFNeP4CUEqp8ZwcY-36" value="" style="endArrow=none;html=1;" parent="WIyWlLk6GJQsqaUBKTNV-1" edge="1">
          <mxGeometry width="50" height="50" relative="1" as="geometry">
            <mxPoint x="1118" y="790.57" as="sourcePoint" />
            <mxPoint x="1118" y="209.99857142857144" as="targetPoint" />
          </mxGeometry>
        </mxCell>
        <mxCell id="MQwKPFNeP4CUEqp8ZwcY-37" value="" style="endArrow=classic;html=1;" parent="WIyWlLk6GJQsqaUBKTNV-1" edge="1">
          <mxGeometry width="50" height="50" relative="1" as="geometry">
            <mxPoint x="1118" y="210.57" as="sourcePoint" />
            <mxPoint x="608" y="210.57" as="targetPoint" />
          </mxGeometry>
        </mxCell>
        <mxCell id="MQwKPFNeP4CUEqp8ZwcY-40" value="Yes" style="endArrow=classic;html=1;exitX=0.5;exitY=1;exitDx=0;exitDy=0;entryX=0.5;entryY=0;entryDx=0;entryDy=0;" parent="WIyWlLk6GJQsqaUBKTNV-1" source="MQwKPFNeP4CUEqp8ZwcY-32" target="WIyWlLk6GJQsqaUBKTNV-11" edge="1">
          <mxGeometry x="-0.0145" y="-8" width="50" height="50" relative="1" as="geometry">
            <mxPoint x="578" y="820" as="sourcePoint" />
            <mxPoint x="628" y="770" as="targetPoint" />
            <Array as="points">
              <mxPoint x="608" y="860" />
            </Array>
            <mxPoint as="offset" />
          </mxGeometry>
        </mxCell>
        <mxCell id="MQwKPFNeP4CUEqp8ZwcY-41" value="" style="endArrow=classic;html=1;exitX=0.5;exitY=1;exitDx=0;exitDy=0;" parent="WIyWlLk6GJQsqaUBKTNV-1" source="WIyWlLk6GJQsqaUBKTNV-11" edge="1">
          <mxGeometry width="50" height="50" relative="1" as="geometry">
            <mxPoint x="608" y="910" as="sourcePoint" />
            <mxPoint x="608" y="960" as="targetPoint" />
          </mxGeometry>
        </mxCell>
        <mxCell id="MQwKPFNeP4CUEqp8ZwcY-42" value="Has 0.5 seconds passed?" style="rhombus;whiteSpace=wrap;html=1;shadow=0;fontFamily=Helvetica;fontSize=12;align=center;strokeWidth=1;spacing=6;spacingTop=-4;" parent="WIyWlLk6GJQsqaUBKTNV-1" vertex="1">
          <mxGeometry x="543" y="960" width="130" height="100" as="geometry" />
        </mxCell>
        <mxCell id="MQwKPFNeP4CUEqp8ZwcY-43" value="" style="endArrow=classic;html=1;exitX=0.5;exitY=1;exitDx=0;exitDy=0;" parent="WIyWlLk6GJQsqaUBKTNV-1" source="MQwKPFNeP4CUEqp8ZwcY-42" edge="1">
          <mxGeometry width="50" height="50" relative="1" as="geometry">
            <mxPoint x="588" y="1130" as="sourcePoint" />
            <mxPoint x="608" y="1100" as="targetPoint" />
          </mxGeometry>
        </mxCell>
        <mxCell id="MQwKPFNeP4CUEqp8ZwcY-44" value="No" style="edgeLabel;html=1;align=center;verticalAlign=middle;resizable=0;points=[];" parent="MQwKPFNeP4CUEqp8ZwcY-43" vertex="1" connectable="0">
          <mxGeometry x="-0.2414" y="2" relative="1" as="geometry">
            <mxPoint x="-20" y="-4.999999999999998" as="offset" />
          </mxGeometry>
        </mxCell>
        <mxCell id="MQwKPFNeP4CUEqp8ZwcY-46" value="Initial Configuration. (Interruptions, initial position)" style="rounded=1;whiteSpace=wrap;html=1;fontSize=12;glass=0;strokeWidth=1;shadow=0;" parent="WIyWlLk6GJQsqaUBKTNV-1" vertex="1">
          <mxGeometry x="533" y="110" width="140" height="50" as="geometry" />
        </mxCell>
        <mxCell id="MQwKPFNeP4CUEqp8ZwcY-47" value="" style="endArrow=classic;html=1;entryX=0.5;entryY=0;entryDx=0;entryDy=0;" parent="WIyWlLk6GJQsqaUBKTNV-1" target="MQwKPFNeP4CUEqp8ZwcY-46" edge="1">
          <mxGeometry width="50" height="50" relative="1" as="geometry">
            <mxPoint x="603" y="80" as="sourcePoint" />
            <mxPoint x="788" y="100" as="targetPoint" />
          </mxGeometry>
        </mxCell>
        <mxCell id="MQwKPFNeP4CUEqp8ZwcY-48" value="Has the + button been pressed?" style="rhombus;whiteSpace=wrap;html=1;shadow=0;fontFamily=Helvetica;fontSize=12;align=center;strokeWidth=1;spacing=6;spacingTop=-4;" parent="WIyWlLk6GJQsqaUBKTNV-1" vertex="1">
          <mxGeometry x="543" y="1140" width="130" height="100" as="geometry" />
        </mxCell>
        <mxCell id="MQwKPFNeP4CUEqp8ZwcY-49" value="Move the servo +10" style="rounded=1;whiteSpace=wrap;html=1;fontSize=12;glass=0;strokeWidth=1;shadow=0;" parent="WIyWlLk6GJQsqaUBKTNV-1" vertex="1">
          <mxGeometry x="938" y="1170" width="120" height="40" as="geometry" />
        </mxCell>
        <mxCell id="MQwKPFNeP4CUEqp8ZwcY-50" value="Is it at 180ยบ?" style="rhombus;whiteSpace=wrap;html=1;shadow=0;fontFamily=Helvetica;fontSize=12;align=center;strokeWidth=1;spacing=6;spacingTop=-4;" parent="WIyWlLk6GJQsqaUBKTNV-1" vertex="1">
          <mxGeometry x="758" y="1140" width="130" height="100" as="geometry" />
        </mxCell>
        <mxCell id="MQwKPFNeP4CUEqp8ZwcY-51" value="" style="endArrow=classic;html=1;exitX=1;exitY=0.5;exitDx=0;exitDy=0;" parent="WIyWlLk6GJQsqaUBKTNV-1" source="MQwKPFNeP4CUEqp8ZwcY-48" target="MQwKPFNeP4CUEqp8ZwcY-50" edge="1">
          <mxGeometry width="50" height="50" relative="1" as="geometry">
            <mxPoint x="698" y="1310" as="sourcePoint" />
            <mxPoint x="748" y="1260" as="targetPoint" />
          </mxGeometry>
        </mxCell>
        <mxCell id="MQwKPFNeP4CUEqp8ZwcY-52" value="Yes" style="edgeLabel;html=1;align=center;verticalAlign=middle;resizable=0;points=[];" parent="MQwKPFNeP4CUEqp8ZwcY-51" vertex="1" connectable="0">
          <mxGeometry x="-0.3479" y="1" relative="1" as="geometry">
            <mxPoint x="7.57" y="-9" as="offset" />
          </mxGeometry>
        </mxCell>
        <mxCell id="MQwKPFNeP4CUEqp8ZwcY-53" value="" style="endArrow=classic;html=1;exitX=0.5;exitY=1;exitDx=0;exitDy=0;" parent="WIyWlLk6GJQsqaUBKTNV-1" source="MQwKPFNeP4CUEqp8ZwcY-48" edge="1">
          <mxGeometry width="50" height="50" relative="1" as="geometry">
            <mxPoint x="778" y="1340" as="sourcePoint" />
            <mxPoint x="608" y="1310" as="targetPoint" />
          </mxGeometry>
        </mxCell>
        <mxCell id="MQwKPFNeP4CUEqp8ZwcY-105" value="No" style="edgeLabel;html=1;align=center;verticalAlign=middle;resizable=0;points=[];" parent="MQwKPFNeP4CUEqp8ZwcY-53" vertex="1" connectable="0">
          <mxGeometry x="-0.5238" y="-1" relative="1" as="geometry">
            <mxPoint x="-17" y="3.33" as="offset" />
          </mxGeometry>
        </mxCell>
        <mxCell id="MQwKPFNeP4CUEqp8ZwcY-54" value="" style="endArrow=classic;html=1;exitX=0.5;exitY=1;exitDx=0;exitDy=0;" parent="WIyWlLk6GJQsqaUBKTNV-1" source="MQwKPFNeP4CUEqp8ZwcY-50" edge="1">
          <mxGeometry width="50" height="50" relative="1" as="geometry">
            <mxPoint x="808" y="1340" as="sourcePoint" />
            <mxPoint x="823" y="1310" as="targetPoint" />
          </mxGeometry>
        </mxCell>
        <mxCell id="MQwKPFNeP4CUEqp8ZwcY-55" value="" style="endArrow=none;html=1;" parent="WIyWlLk6GJQsqaUBKTNV-1" edge="1">
          <mxGeometry width="50" height="50" relative="1" as="geometry">
            <mxPoint x="608" y="1310" as="sourcePoint" />
            <mxPoint x="828" y="1310" as="targetPoint" />
          </mxGeometry>
        </mxCell>
        <mxCell id="MQwKPFNeP4CUEqp8ZwcY-56" value="Yes" style="text;html=1;strokeColor=none;fillColor=none;align=center;verticalAlign=middle;whiteSpace=wrap;rounded=0;" parent="WIyWlLk6GJQsqaUBKTNV-1" vertex="1">
          <mxGeometry x="782" y="1250" width="40" height="20" as="geometry" />
        </mxCell>
        <mxCell id="MQwKPFNeP4CUEqp8ZwcY-57" value="" style="endArrow=classic;html=1;entryX=0.5;entryY=0;entryDx=0;entryDy=0;" parent="WIyWlLk6GJQsqaUBKTNV-1" edge="1">
          <mxGeometry width="50" height="50" relative="1" as="geometry">
            <mxPoint x="608" y="1310" as="sourcePoint" />
            <mxPoint x="608" y="1380" as="targetPoint" />
          </mxGeometry>
        </mxCell>
        <mxCell id="MQwKPFNeP4CUEqp8ZwcY-58" value="No" style="endArrow=classic;html=1;exitX=1;exitY=0.5;exitDx=0;exitDy=0;entryX=0;entryY=0.5;entryDx=0;entryDy=0;" parent="WIyWlLk6GJQsqaUBKTNV-1" source="MQwKPFNeP4CUEqp8ZwcY-50" target="MQwKPFNeP4CUEqp8ZwcY-49" edge="1">
          <mxGeometry y="10" width="50" height="50" relative="1" as="geometry">
            <mxPoint x="898" y="1320" as="sourcePoint" />
            <mxPoint x="948" y="1270" as="targetPoint" />
            <mxPoint as="offset" />
          </mxGeometry>
        </mxCell>
        <mxCell id="MQwKPFNeP4CUEqp8ZwcY-59" value="" style="endArrow=classic;html=1;exitX=0.5;exitY=1;exitDx=0;exitDy=0;" parent="WIyWlLk6GJQsqaUBKTNV-1" source="MQwKPFNeP4CUEqp8ZwcY-49" edge="1">
          <mxGeometry width="50" height="50" relative="1" as="geometry">
            <mxPoint x="968" y="1290" as="sourcePoint" />
            <mxPoint x="998" y="1310" as="targetPoint" />
          </mxGeometry>
        </mxCell>
        <mxCell id="MQwKPFNeP4CUEqp8ZwcY-60" value="" style="endArrow=none;html=1;" parent="WIyWlLk6GJQsqaUBKTNV-1" edge="1">
          <mxGeometry width="50" height="50" relative="1" as="geometry">
            <mxPoint x="828" y="1310" as="sourcePoint" />
            <mxPoint x="998" y="1310" as="targetPoint" />
          </mxGeometry>
        </mxCell>
        <mxCell id="MQwKPFNeP4CUEqp8ZwcY-61" value="" style="endArrow=classic;html=1;exitX=1;exitY=0.5;exitDx=0;exitDy=0;" parent="WIyWlLk6GJQsqaUBKTNV-1" source="MQwKPFNeP4CUEqp8ZwcY-42" edge="1">
          <mxGeometry width="50" height="50" relative="1" as="geometry">
            <mxPoint x="728" y="1030" as="sourcePoint" />
            <mxPoint x="768" y="1010" as="targetPoint" />
          </mxGeometry>
        </mxCell>
        <mxCell id="MQwKPFNeP4CUEqp8ZwcY-62" value="Yes" style="text;html=1;strokeColor=none;fillColor=none;align=center;verticalAlign=middle;whiteSpace=wrap;rounded=0;" parent="WIyWlLk6GJQsqaUBKTNV-1" vertex="1">
          <mxGeometry x="691" y="990" width="40" height="20" as="geometry" />
        </mxCell>
        <mxCell id="MQwKPFNeP4CUEqp8ZwcY-64" value="I measure, update the display, update the speaker frequency and reset the timer" style="rounded=1;whiteSpace=wrap;html=1;fontSize=12;glass=0;strokeWidth=1;shadow=0;" parent="WIyWlLk6GJQsqaUBKTNV-1" vertex="1">
          <mxGeometry x="760" y="990" width="134" height="60" as="geometry" />
        </mxCell>
        <mxCell id="MQwKPFNeP4CUEqp8ZwcY-66" value="" style="endArrow=classic;html=1;exitX=0.5;exitY=1;exitDx=0;exitDy=0;" parent="WIyWlLk6GJQsqaUBKTNV-1" source="MQwKPFNeP4CUEqp8ZwcY-64" edge="1">
          <mxGeometry width="50" height="50" relative="1" as="geometry">
            <mxPoint x="848" y="1110" as="sourcePoint" />
            <mxPoint x="828" y="1100" as="targetPoint" />
          </mxGeometry>
        </mxCell>
        <mxCell id="MQwKPFNeP4CUEqp8ZwcY-67" value="" style="endArrow=none;html=1;" parent="WIyWlLk6GJQsqaUBKTNV-1" edge="1">
          <mxGeometry width="50" height="50" relative="1" as="geometry">
            <mxPoint x="608" y="1100" as="sourcePoint" />
            <mxPoint x="828" y="1100" as="targetPoint" />
            <Array as="points" />
          </mxGeometry>
        </mxCell>
        <mxCell id="MQwKPFNeP4CUEqp8ZwcY-68" value="" style="endArrow=classic;html=1;entryX=0.5;entryY=0;entryDx=0;entryDy=0;" parent="WIyWlLk6GJQsqaUBKTNV-1" target="MQwKPFNeP4CUEqp8ZwcY-48" edge="1">
          <mxGeometry width="50" height="50" relative="1" as="geometry">
            <mxPoint x="608" y="1100" as="sourcePoint" />
            <mxPoint x="598" y="1080" as="targetPoint" />
          </mxGeometry>
        </mxCell>
        <mxCell id="MQwKPFNeP4CUEqp8ZwcY-69" value="Has 0.5 seconds passed?" style="rhombus;whiteSpace=wrap;html=1;shadow=0;fontFamily=Helvetica;fontSize=12;align=center;strokeWidth=1;spacing=6;spacingTop=-4;" parent="WIyWlLk6GJQsqaUBKTNV-1" vertex="1">
          <mxGeometry x="543" y="1380" width="130" height="100" as="geometry" />
        </mxCell>
        <mxCell id="MQwKPFNeP4CUEqp8ZwcY-70" value="" style="endArrow=classic;html=1;exitX=0.5;exitY=1;exitDx=0;exitDy=0;" parent="WIyWlLk6GJQsqaUBKTNV-1" source="MQwKPFNeP4CUEqp8ZwcY-69" edge="1">
          <mxGeometry width="50" height="50" relative="1" as="geometry">
            <mxPoint x="588" y="1550" as="sourcePoint" />
            <mxPoint x="608" y="1520" as="targetPoint" />
          </mxGeometry>
        </mxCell>
        <mxCell id="MQwKPFNeP4CUEqp8ZwcY-71" value="No" style="edgeLabel;html=1;align=center;verticalAlign=middle;resizable=0;points=[];" parent="MQwKPFNeP4CUEqp8ZwcY-70" vertex="1" connectable="0">
          <mxGeometry x="-0.2414" y="2" relative="1" as="geometry">
            <mxPoint x="18" y="-12.76" as="offset" />
          </mxGeometry>
        </mxCell>
        <mxCell id="MQwKPFNeP4CUEqp8ZwcY-72" value="" style="endArrow=classic;html=1;exitX=1;exitY=0.5;exitDx=0;exitDy=0;" parent="WIyWlLk6GJQsqaUBKTNV-1" source="MQwKPFNeP4CUEqp8ZwcY-69" edge="1">
          <mxGeometry width="50" height="50" relative="1" as="geometry">
            <mxPoint x="728" y="1450" as="sourcePoint" />
            <mxPoint x="768" y="1430" as="targetPoint" />
          </mxGeometry>
        </mxCell>
        <mxCell id="MQwKPFNeP4CUEqp8ZwcY-73" value="Yes" style="text;html=1;strokeColor=none;fillColor=none;align=center;verticalAlign=middle;whiteSpace=wrap;rounded=0;" parent="WIyWlLk6GJQsqaUBKTNV-1" vertex="1">
          <mxGeometry x="691" y="1410" width="40" height="20" as="geometry" />
        </mxCell>
        <mxCell id="MQwKPFNeP4CUEqp8ZwcY-75" value="" style="endArrow=classic;html=1;exitX=0.5;exitY=1;exitDx=0;exitDy=0;" parent="WIyWlLk6GJQsqaUBKTNV-1" source="MQwKPFNeP4CUEqp8ZwcY-90" edge="1">
          <mxGeometry width="50" height="50" relative="1" as="geometry">
            <mxPoint x="829" y="1460" as="sourcePoint" />
            <mxPoint x="837" y="1520" as="targetPoint" />
          </mxGeometry>
        </mxCell>
        <mxCell id="MQwKPFNeP4CUEqp8ZwcY-76" value="" style="endArrow=none;html=1;" parent="WIyWlLk6GJQsqaUBKTNV-1" edge="1">
          <mxGeometry width="50" height="50" relative="1" as="geometry">
            <mxPoint x="608" y="1520" as="sourcePoint" />
            <mxPoint x="838" y="1520" as="targetPoint" />
            <Array as="points" />
          </mxGeometry>
        </mxCell>
        <mxCell id="MQwKPFNeP4CUEqp8ZwcY-77" value="Has the - button been pressed?" style="rhombus;whiteSpace=wrap;html=1;shadow=0;fontFamily=Helvetica;fontSize=12;align=center;strokeWidth=1;spacing=6;spacingTop=-4;" parent="WIyWlLk6GJQsqaUBKTNV-1" vertex="1">
          <mxGeometry x="543" y="1570" width="130" height="100" as="geometry" />
        </mxCell>
        <mxCell id="MQwKPFNeP4CUEqp8ZwcY-78" value="Move servo -10" style="rounded=1;whiteSpace=wrap;html=1;fontSize=12;glass=0;strokeWidth=1;shadow=0;" parent="WIyWlLk6GJQsqaUBKTNV-1" vertex="1">
          <mxGeometry x="938" y="1600" width="120" height="40" as="geometry" />
        </mxCell>
        <mxCell id="MQwKPFNeP4CUEqp8ZwcY-79" value="Is it at 0ยบ?" style="rhombus;whiteSpace=wrap;html=1;shadow=0;fontFamily=Helvetica;fontSize=12;align=center;strokeWidth=1;spacing=6;spacingTop=-4;" parent="WIyWlLk6GJQsqaUBKTNV-1" vertex="1">
          <mxGeometry x="758" y="1570" width="130" height="100" as="geometry" />
        </mxCell>
        <mxCell id="MQwKPFNeP4CUEqp8ZwcY-80" value="" style="endArrow=classic;html=1;exitX=1;exitY=0.5;exitDx=0;exitDy=0;" parent="WIyWlLk6GJQsqaUBKTNV-1" source="MQwKPFNeP4CUEqp8ZwcY-77" target="MQwKPFNeP4CUEqp8ZwcY-79" edge="1">
          <mxGeometry width="50" height="50" relative="1" as="geometry">
            <mxPoint x="698" y="1740" as="sourcePoint" />
            <mxPoint x="748" y="1690" as="targetPoint" />
          </mxGeometry>
        </mxCell>
        <mxCell id="MQwKPFNeP4CUEqp8ZwcY-81" value="Yes" style="edgeLabel;html=1;align=center;verticalAlign=middle;resizable=0;points=[];" parent="MQwKPFNeP4CUEqp8ZwcY-80" vertex="1" connectable="0">
          <mxGeometry x="-0.3479" y="1" relative="1" as="geometry">
            <mxPoint x="7.57" y="-9" as="offset" />
          </mxGeometry>
        </mxCell>
        <mxCell id="MQwKPFNeP4CUEqp8ZwcY-82" value="" style="endArrow=classic;html=1;exitX=0.5;exitY=1;exitDx=0;exitDy=0;" parent="WIyWlLk6GJQsqaUBKTNV-1" source="MQwKPFNeP4CUEqp8ZwcY-77" edge="1">
          <mxGeometry width="50" height="50" relative="1" as="geometry">
            <mxPoint x="778" y="1770" as="sourcePoint" />
            <mxPoint x="608" y="1740" as="targetPoint" />
          </mxGeometry>
        </mxCell>
        <mxCell id="MQwKPFNeP4CUEqp8ZwcY-106" value="No" style="edgeLabel;html=1;align=center;verticalAlign=middle;resizable=0;points=[];" parent="MQwKPFNeP4CUEqp8ZwcY-82" vertex="1" connectable="0">
          <mxGeometry x="-0.2619" relative="1" as="geometry">
            <mxPoint x="-18" y="4.17" as="offset" />
          </mxGeometry>
        </mxCell>
        <mxCell id="MQwKPFNeP4CUEqp8ZwcY-83" value="" style="endArrow=classic;html=1;exitX=0.5;exitY=1;exitDx=0;exitDy=0;" parent="WIyWlLk6GJQsqaUBKTNV-1" source="MQwKPFNeP4CUEqp8ZwcY-79" edge="1">
          <mxGeometry width="50" height="50" relative="1" as="geometry">
            <mxPoint x="808" y="1770" as="sourcePoint" />
            <mxPoint x="823" y="1740" as="targetPoint" />
          </mxGeometry>
        </mxCell>
        <mxCell id="MQwKPFNeP4CUEqp8ZwcY-84" value="" style="endArrow=none;html=1;" parent="WIyWlLk6GJQsqaUBKTNV-1" edge="1">
          <mxGeometry width="50" height="50" relative="1" as="geometry">
            <mxPoint x="608" y="1740" as="sourcePoint" />
            <mxPoint x="828" y="1740" as="targetPoint" />
          </mxGeometry>
        </mxCell>
        <mxCell id="MQwKPFNeP4CUEqp8ZwcY-85" value="Yes" style="text;html=1;strokeColor=none;fillColor=none;align=center;verticalAlign=middle;whiteSpace=wrap;rounded=0;" parent="WIyWlLk6GJQsqaUBKTNV-1" vertex="1">
          <mxGeometry x="782" y="1680" width="40" height="20" as="geometry" />
        </mxCell>
        <mxCell id="MQwKPFNeP4CUEqp8ZwcY-86" value="No" style="endArrow=classic;html=1;exitX=1;exitY=0.5;exitDx=0;exitDy=0;entryX=0;entryY=0.5;entryDx=0;entryDy=0;" parent="WIyWlLk6GJQsqaUBKTNV-1" source="MQwKPFNeP4CUEqp8ZwcY-79" target="MQwKPFNeP4CUEqp8ZwcY-78" edge="1">
          <mxGeometry y="10" width="50" height="50" relative="1" as="geometry">
            <mxPoint x="898" y="1750" as="sourcePoint" />
            <mxPoint x="948" y="1700" as="targetPoint" />
            <mxPoint as="offset" />
          </mxGeometry>
        </mxCell>
        <mxCell id="MQwKPFNeP4CUEqp8ZwcY-87" value="" style="endArrow=classic;html=1;exitX=0.5;exitY=1;exitDx=0;exitDy=0;" parent="WIyWlLk6GJQsqaUBKTNV-1" source="MQwKPFNeP4CUEqp8ZwcY-78" edge="1">
          <mxGeometry width="50" height="50" relative="1" as="geometry">
            <mxPoint x="968" y="1720" as="sourcePoint" />
            <mxPoint x="998" y="1740" as="targetPoint" />
          </mxGeometry>
        </mxCell>
        <mxCell id="MQwKPFNeP4CUEqp8ZwcY-88" value="" style="endArrow=none;html=1;" parent="WIyWlLk6GJQsqaUBKTNV-1" edge="1">
          <mxGeometry width="50" height="50" relative="1" as="geometry">
            <mxPoint x="828" y="1740" as="sourcePoint" />
            <mxPoint x="998" y="1740" as="targetPoint" />
          </mxGeometry>
        </mxCell>
        <mxCell id="MQwKPFNeP4CUEqp8ZwcY-89" value="" style="endArrow=classic;html=1;entryX=0.5;entryY=0;entryDx=0;entryDy=0;" parent="WIyWlLk6GJQsqaUBKTNV-1" target="MQwKPFNeP4CUEqp8ZwcY-77" edge="1">
          <mxGeometry width="50" height="50" relative="1" as="geometry">
            <mxPoint x="608" y="1520" as="sourcePoint" />
            <mxPoint x="610" y="1580" as="targetPoint" />
          </mxGeometry>
        </mxCell>
        <mxCell id="MQwKPFNeP4CUEqp8ZwcY-90" value="I measure, update the display, update the speaker frequency and reset the timer" style="rounded=1;whiteSpace=wrap;html=1;fontSize=12;glass=0;strokeWidth=1;shadow=0;" parent="WIyWlLk6GJQsqaUBKTNV-1" vertex="1">
          <mxGeometry x="770" y="1400" width="134" height="60" as="geometry" />
        </mxCell>
        <mxCell id="MQwKPFNeP4CUEqp8ZwcY-91" value="Has 0.5 seconds passed?" style="rhombus;whiteSpace=wrap;html=1;shadow=0;fontFamily=Helvetica;fontSize=12;align=center;strokeWidth=1;spacing=6;spacingTop=-4;" parent="WIyWlLk6GJQsqaUBKTNV-1" vertex="1">
          <mxGeometry x="543" y="1800" width="130" height="100" as="geometry" />
        </mxCell>
        <mxCell id="MQwKPFNeP4CUEqp8ZwcY-92" value="" style="endArrow=classic;html=1;exitX=0.5;exitY=1;exitDx=0;exitDy=0;" parent="WIyWlLk6GJQsqaUBKTNV-1" source="MQwKPFNeP4CUEqp8ZwcY-91" edge="1">
          <mxGeometry width="50" height="50" relative="1" as="geometry">
            <mxPoint x="588" y="1970" as="sourcePoint" />
            <mxPoint x="608" y="1940" as="targetPoint" />
          </mxGeometry>
        </mxCell>
        <mxCell id="MQwKPFNeP4CUEqp8ZwcY-93" value="No" style="edgeLabel;html=1;align=center;verticalAlign=middle;resizable=0;points=[];" parent="MQwKPFNeP4CUEqp8ZwcY-92" vertex="1" connectable="0">
          <mxGeometry x="-0.2414" y="2" relative="1" as="geometry">
            <mxPoint x="18" y="-12.76" as="offset" />
          </mxGeometry>
        </mxCell>
        <mxCell id="MQwKPFNeP4CUEqp8ZwcY-94" value="" style="endArrow=classic;html=1;exitX=1;exitY=0.5;exitDx=0;exitDy=0;" parent="WIyWlLk6GJQsqaUBKTNV-1" source="MQwKPFNeP4CUEqp8ZwcY-91" edge="1">
          <mxGeometry width="50" height="50" relative="1" as="geometry">
            <mxPoint x="728" y="1870" as="sourcePoint" />
            <mxPoint x="768" y="1850" as="targetPoint" />
          </mxGeometry>
        </mxCell>
        <mxCell id="MQwKPFNeP4CUEqp8ZwcY-95" value="Yes" style="text;html=1;strokeColor=none;fillColor=none;align=center;verticalAlign=middle;whiteSpace=wrap;rounded=0;" parent="WIyWlLk6GJQsqaUBKTNV-1" vertex="1">
          <mxGeometry x="691" y="1830" width="40" height="20" as="geometry" />
        </mxCell>
        <mxCell id="MQwKPFNeP4CUEqp8ZwcY-96" value="" style="endArrow=classic;html=1;exitX=0.5;exitY=1;exitDx=0;exitDy=0;" parent="WIyWlLk6GJQsqaUBKTNV-1" source="MQwKPFNeP4CUEqp8ZwcY-98" edge="1">
          <mxGeometry width="50" height="50" relative="1" as="geometry">
            <mxPoint x="829" y="1880" as="sourcePoint" />
            <mxPoint x="837" y="1940" as="targetPoint" />
          </mxGeometry>
        </mxCell>
        <mxCell id="MQwKPFNeP4CUEqp8ZwcY-97" value="" style="endArrow=none;html=1;" parent="WIyWlLk6GJQsqaUBKTNV-1" edge="1">
          <mxGeometry width="50" height="50" relative="1" as="geometry">
            <mxPoint x="608" y="1940" as="sourcePoint" />
            <mxPoint x="838" y="1940" as="targetPoint" />
            <Array as="points" />
          </mxGeometry>
        </mxCell>
        <mxCell id="MQwKPFNeP4CUEqp8ZwcY-98" value="I measure, update the display, update the speaker frequency and reset the timer" style="rounded=1;whiteSpace=wrap;html=1;fontSize=12;glass=0;strokeWidth=1;shadow=0;" parent="WIyWlLk6GJQsqaUBKTNV-1" vertex="1">
          <mxGeometry x="770" y="1820" width="134" height="60" as="geometry" />
        </mxCell>
        <mxCell id="MQwKPFNeP4CUEqp8ZwcY-99" value="" style="endArrow=classic;html=1;entryX=0.5;entryY=0;entryDx=0;entryDy=0;" parent="WIyWlLk6GJQsqaUBKTNV-1" target="MQwKPFNeP4CUEqp8ZwcY-91" edge="1">
          <mxGeometry width="50" height="50" relative="1" as="geometry">
            <mxPoint x="608" y="1740" as="sourcePoint" />
            <mxPoint x="590" y="1720" as="targetPoint" />
          </mxGeometry>
        </mxCell>
        <mxCell id="MQwKPFNeP4CUEqp8ZwcY-100" value="&lt;div&gt;Has the ISP button been pressed?&lt;/div&gt;" style="rhombus;whiteSpace=wrap;html=1;shadow=0;fontFamily=Helvetica;fontSize=12;align=center;strokeWidth=1;spacing=6;spacingTop=-4;" parent="WIyWlLk6GJQsqaUBKTNV-1" vertex="1">
          <mxGeometry x="543" y="2000" width="130" height="100" as="geometry" />
        </mxCell>
        <mxCell id="MQwKPFNeP4CUEqp8ZwcY-101" value="" style="endArrow=none;html=1;exitX=0.967;exitY=0.517;exitDx=0;exitDy=0;exitPerimeter=0;" parent="WIyWlLk6GJQsqaUBKTNV-1" source="MQwKPFNeP4CUEqp8ZwcY-100" edge="1">
          <mxGeometry width="50" height="50" relative="1" as="geometry">
            <mxPoint x="728" y="2070" as="sourcePoint" />
            <mxPoint x="1120" y="2052" as="targetPoint" />
          </mxGeometry>
        </mxCell>
        <mxCell id="MQwKPFNeP4CUEqp8ZwcY-107" value="Yes" style="edgeLabel;html=1;align=center;verticalAlign=middle;resizable=0;points=[];" parent="MQwKPFNeP4CUEqp8ZwcY-101" vertex="1" connectable="0">
          <mxGeometry x="-0.6456" y="1" relative="1" as="geometry">
            <mxPoint x="9.290000000000006" y="-10.75" as="offset" />
          </mxGeometry>
        </mxCell>
        <mxCell id="MQwKPFNeP4CUEqp8ZwcY-103" value="" style="endArrow=classic;html=1;entryX=0.5;entryY=0;entryDx=0;entryDy=0;" parent="WIyWlLk6GJQsqaUBKTNV-1" target="MQwKPFNeP4CUEqp8ZwcY-100" edge="1">
          <mxGeometry width="50" height="50" relative="1" as="geometry">
            <mxPoint x="608" y="1940" as="sourcePoint" />
            <mxPoint x="540" y="1950" as="targetPoint" />
          </mxGeometry>
        </mxCell>
        <mxCell id="MQwKPFNeP4CUEqp8ZwcY-108" value="" style="endArrow=classic;html=1;" parent="WIyWlLk6GJQsqaUBKTNV-1" edge="1">
          <mxGeometry width="50" height="50" relative="1" as="geometry">
            <mxPoint x="1118" y="2050" as="sourcePoint" />
            <mxPoint x="1118" y="790" as="targetPoint" />
          </mxGeometry>
        </mxCell>
        <mxCell id="MQwKPFNeP4CUEqp8ZwcY-109" value="" style="endArrow=none;html=1;entryX=0;entryY=0.5;entryDx=0;entryDy=0;" parent="WIyWlLk6GJQsqaUBKTNV-1" target="MQwKPFNeP4CUEqp8ZwcY-100" edge="1">
          <mxGeometry width="50" height="50" relative="1" as="geometry">
            <mxPoint x="470" y="2050" as="sourcePoint" />
            <mxPoint x="540" y="2050" as="targetPoint" />
          </mxGeometry>
        </mxCell>
        <mxCell id="MQwKPFNeP4CUEqp8ZwcY-111" value="" style="endArrow=classic;html=1;" parent="WIyWlLk6GJQsqaUBKTNV-1" edge="1">
          <mxGeometry width="50" height="50" relative="1" as="geometry">
            <mxPoint x="470" y="2050" as="sourcePoint" />
            <mxPoint x="470" y="940" as="targetPoint" />
          </mxGeometry>
        </mxCell>
        <mxCell id="MQwKPFNeP4CUEqp8ZwcY-112" value="" style="endArrow=classic;html=1;" parent="WIyWlLk6GJQsqaUBKTNV-1" edge="1">
          <mxGeometry width="50" height="50" relative="1" as="geometry">
            <mxPoint x="480" y="940" as="sourcePoint" />
            <mxPoint x="610" y="940" as="targetPoint" />
          </mxGeometry>
        </mxCell>
        <mxCell id="MQwKPFNeP4CUEqp8ZwcY-113" value="" style="endArrow=classic;html=1;exitX=1;exitY=0.5;exitDx=0;exitDy=0;" parent="WIyWlLk6GJQsqaUBKTNV-1" source="MQwKPFNeP4CUEqp8ZwcY-32" edge="1">
          <mxGeometry width="50" height="50" relative="1" as="geometry">
            <mxPoint x="770" y="830" as="sourcePoint" />
            <mxPoint x="1120" y="791" as="targetPoint" />
          </mxGeometry>
        </mxCell>
        <mxCell id="MQwKPFNeP4CUEqp8ZwcY-115" value="Whenever you press&lt;br&gt;the reset, regardless of the place of the flowchart we return here." style="text;html=1;strokeColor=none;fillColor=none;align=center;verticalAlign=middle;whiteSpace=wrap;rounded=0;" parent="WIyWlLk6GJQsqaUBKTNV-1" vertex="1">
          <mxGeometry x="310" y="60" width="170" height="80" as="geometry" />
        </mxCell>
        <mxCell id="MQwKPFNeP4CUEqp8ZwcY-116" style="edgeStyle=orthogonalEdgeStyle;rounded=0;orthogonalLoop=1;jettySize=auto;html=1;exitX=0.5;exitY=1;exitDx=0;exitDy=0;" parent="WIyWlLk6GJQsqaUBKTNV-1" source="MQwKPFNeP4CUEqp8ZwcY-115" target="MQwKPFNeP4CUEqp8ZwcY-115" edge="1">
          <mxGeometry relative="1" as="geometry" />
        </mxCell>
        <mxCell id="QHhOrnPHTKVIcYIxAo2O-0" value="" style="endArrow=none;dashed=1;html=1;dashPattern=1 3;strokeWidth=2;labelBackgroundColor=none;exitX=1;exitY=0.5;exitDx=0;exitDy=0;" edge="1" parent="WIyWlLk6GJQsqaUBKTNV-1" source="MQwKPFNeP4CUEqp8ZwcY-115">
          <mxGeometry width="50" height="50" relative="1" as="geometry">
            <mxPoint x="500" y="320" as="sourcePoint" />
            <mxPoint x="590" y="100" as="targetPoint" />
          </mxGeometry>
        </mxCell>
      </root>
    </mxGraphModel>
  </diagram>
</mxfile>
